<?xml version="1.0" standalone="no"?><!DOCTYPE svg PUBLIC "-//W3C//DTD SVG 1.1//EN" "http://www.w3.org/Graphics/SVG/1.1/DTD/svg11.dtd"><svg t="1635230280812" class="icon" viewBox="0 0 1152 1024" version="1.1" xmlns="http://www.w3.org/2000/svg" p-id="2748" xmlns:xlink="http://www.w3.org/1999/xlink" width="225" height="200"><defs><style type="text/css"></style></defs><path d="M572.16 427.008l-261.952-66.976a19.904 19.904 0 0 0-24.288 13.312l-0.032 0.128a18.24 18.24 0 0 0 2.112 14.56l-0.032-0.064a19.296 19.296 0 0 0 12 8.736l261.888 67.008a19.936 19.936 0 0 0 24.256-13.28l0.032-0.128a18.336 18.336 0 0 0-2.016-14.56l0.032 0.096a19.264 19.264 0 0 0-11.872-8.736l-0.128-0.032z m58.496 30.72c1.856-1.888 3.456-3.968 5.728-5.728-2.272 1.664-3.904 3.84-5.728 5.728z m2.784 0.16c-2.528 1.856-3.744 3.776-5.696 5.696 1.856-1.856 3.168-3.84 5.696-5.696z m8-9.792c-2.08 1.504-3.744 3.68-5.728 5.728 1.952-2.048 3.648-4.224 5.728-5.728z m496.704 98.368l-123.584-206.304c-0.384-0.384-0.768-0.608-0.928-0.96v-0.032a18.816 18.816 0 0 0-3.264-3.488l-0.032-0.032c-0.576-0.512-1.152-1.056-1.792-1.504a20.224 20.224 0 0 0-4.512-2.144l-0.16-0.032c-0.576-0.192-1.152-0.512-1.696-0.672l-0.192-0.032-0.288-0.096-469.568-105.024a20.448 20.448 0 0 0-10.88 0.448l0.16-0.032-334.944 105.024a1.984 1.984 0 0 0-0.608 0.384h-0.128a17.6 17.6 0 0 0-4.448 2.496l0.032-0.032c-0.64 0.416-1.408 0.608-1.952 1.12l-172.16 147.936a18.272 18.272 0 0 0-3.712 24l-0.032-0.064c3.712 5.888 10.24 9.152 17.024 9.152a21.888 21.888 0 0 0 6.912-1.152l105.376-37.44a19.328 19.328 0 0 0 11.008-9.728l0.064-0.128a18.464 18.464 0 0 0 0.512-14.72l0.032 0.128a20.224 20.224 0 0 0-25.664-11.104l0.128-0.032-7.424 2.656 61.408-52.8v501.568c0 8.608 6.208 16.128 15.008 18.336l452.512 110.304c1.952 0.64 4.096 0.896 6.176 0.896h1.696c0.16 0 0.256 0 0.352-0.096a20.064 20.064 0 0 0 4.544-0.864l-0.16 0.032c0.32-0.192 0.48-0.192 0.704-0.384l338.944-110.304a19.2 19.2 0 0 0 13.472-17.952v-279.872l121.216-40.064a19.072 19.072 0 0 0 12.096-11.04l0.032-0.128a18.24 18.24 0 0 0-1.408-16.352l0.032 0.096v0.032zM212.544 363.392l-9.632 3.008-30.048 25.792v-0.032l30.016-25.792 9.632-3.008 0.032 0.032z m427.584 84.448c-0.192 0.064-0.288 0.192-0.48 0.256-1.504 0.576-2.656 1.408-3.936 2.176-0.928 0.576-1.888 1.056-2.752 1.792-0.928 0.896-1.568 1.92-2.336 2.88-0.64 1.024-1.504 1.888-2.048 2.976-0.384 1.024-0.576 2.112-0.768 3.104-0.448 1.408-0.928 2.688-0.928 4.128v0.096c0 0.192-0.096 0.32-0.096 0.512v514.304L212.544 879.072V363.328l316-99.008 397.344 88.832-285.824 94.688z m340.32 134.432l1.696-0.416a20.128 20.128 0 0 0-3.136 0.928l0.128-0.064c0.256-0.096 0.576-0.16 0.736-0.256l-172.192 56.928-79.264-109.312a20.48 20.48 0 0 0-27.808-4.704l0.064-0.032a18.272 18.272 0 0 0-4.928 26.4l-0.032-0.064 87.968 121.184a20.288 20.288 0 0 0 23.008 7.04l-0.128 0.032 159.84-52.896v-26.688 279.84l-300 97.664V479.2l321.728-106.592-8.16-13.632a18.176 18.176 0 0 1 0.416-19.488l-0.032 0.064a18.24 18.24 0 0 0-0.224 19.52l-0.032-0.096 8.064 13.632 103.616 172.736-111.296 36.832z m9.664-0.832a24.896 24.896 0 0 0-5.92 1.12l0.192-0.064c2.016-0.48 4-1.056 5.728-1.056z m-1.856 0.16a20.832 20.832 0 0 0-5.792 2.4l0.096-0.064a22.176 22.176 0 0 1 5.696-2.336z m-14.336 8.928c1.536-1.856 3.616-3.744 5.728-5.696-2.08 1.952-4.192 3.744-5.728 5.696z m1.504-0.832c2.048-2.176 4.16-3.968 5.696-5.728-1.536 1.76-3.648 3.552-5.696 5.728z m1.6-0.896c1.696-2.176 3.936-3.936 5.696-5.696-1.76 1.76-4 3.52-5.696 5.696z m-344.416-127.776c-2.56 1.92-5.696 3.712-5.696 5.728 0-1.952 3.136-3.776 5.696-5.728z m83.808-275.136a20.128 20.128 0 0 0 24.896 13.888l-0.128 0.032 67.136-19.264a20.096 20.096 0 0 0 13.6-25.056l0.032 0.128a20.096 20.096 0 0 0-24.864-13.888l0.128-0.032-67.136 19.264a20.096 20.096 0 0 0-13.568 25.056l-0.032-0.128z m-247.776-120.704c0.864 2.912 2.24 5.44 4.064 7.584l-0.032-0.032 45.568 53.792a19.84 19.84 0 0 0 28.192 2.304l-0.032 0.032a20.256 20.256 0 0 0 2.112-28.448l0.032 0.032-45.6-53.792a19.84 19.84 0 0 0-28.192-2.304l0.032-0.032a20.224 20.224 0 0 0-6.112 21.056l-0.032-0.128z m177.408 42.176a20.16 20.16 0 0 0 19.264 14.688 19.84 19.84 0 0 0 19.52-16.32l0.032-0.128 13.568-75.648A20.288 20.288 0 0 0 682.464 6.4l-0.128-0.032a19.84 19.84 0 0 0-23.2 15.968l-0.032 0.128-13.568 75.68a21.024 21.024 0 0 0 0.512 9.344l-0.032-0.16z" p-id="2749" fill="#8a8a8a"></path></svg>